<?xml version="1.0" standalone="no"?><!DOCTYPE svg PUBLIC "-//W3C//DTD SVG 1.1//EN" "http://www.w3.org/Graphics/SVG/1.1/DTD/svg11.dtd"><svg t="1774949240792" class="icon" viewBox="0 0 1024 1024" version="1.1" xmlns="http://www.w3.org/2000/svg" p-id="9120" xmlns:xlink="http://www.w3.org/1999/xlink" width="64" height="64"><path d="M467.52 0C725.76 0 935.061333 209.322667 935.061333 467.52c0 104.106667-34.026667 200.298667-91.584 277.973333l160.234667 160.256a69.269333 69.269333 0 0 1-97.962667 97.962667l-160.234666-160.234667a465.450667 465.450667 0 0 1-277.973334 91.584C209.301333 935.04 0 725.738667 0 467.52 0 209.322667 209.322667 0 467.52 0z m0 138.517333c-181.696 0-329.002667 147.306667-329.002667 329.002667 0 181.717333 147.306667 329.002667 329.002667 329.002667 181.717333 0 329.002667-147.285333 329.002667-329.002667 0-181.696-147.285333-329.002667-329.002667-329.002667z m117.589333 75.050667a68.416 68.416 0 0 1 22.058667 133.205333L565.333333 584.256a74.645333 74.645333 0 1 1-109.162666 32.853333l-141.013334-140.970666a87.082667 87.082667 0 1 1 28.330667-144.085334l2.986667 3.008 170.816-62.165333a68.437333 68.437333 0 0 1 67.84-59.328z m-47.146666 118.016l-167.637334 60.992 0.085334 2.474667c0 14.058667-3.328 27.349333-9.258667 39.104l141.397333 141.376 1.194667-0.362667 41.834667-237.312a68.757333 68.757333 0 0 1-7.616-6.272z m154.944 151.978667a45.376 45.376 0 1 1 0 90.773333 45.376 45.376 0 0 1 0-90.773333z" p-id="9121" fill="#ff0000"></path></svg>